<svg xmlns="http://www.w3.org/2000/svg" width="25" height="41" viewBox="0 0 25 41">
  <g fill="none" fill-rule="evenodd">
    <path fill="#4CAF50" d="M12.5,0 C5.596,0 0,5.596 0,12.5 C0,19.404 5.596,25 12.5,25 C19.404,25 25,19.404 25,12.5 C25,5.596 19.404,0 12.5,0 Z M12.5,41 L5,25 L20,25 L12.5,41 Z"/>
    <path fill="#FFFFFF" d="M17,11 L14,11 L14,8 C14,7.45 13.55,7 13,7 L12,7 C11.45,7 11,7.45 11,8 L11,11 L8,11 C7.45,11 7,11.45 7,12 L7,13 C7,13.55 7.45,14 8,14 L11,14 L11,17 C11,17.55 11.45,18 12,18 L13,18 C13.55,18 14,17.55 14,17 L14,14 L17,14 C17.55,14 18,13.55 18,13 L18,12 C18,11.45 17.55,11 17,11 Z"/>
  </g>
</svg>