<svg xmlns="http://www.w3.org/2000/svg" width="25" height="41" viewBox="0 0 25 41">
  <g fill="none" fill-rule="evenodd">
    <path fill="#F44336" d="M12.5,0 C5.596,0 0,5.596 0,12.5 C0,19.404 5.596,25 12.5,25 C19.404,25 25,19.404 25,12.5 C25,5.596 19.404,0 12.5,0 Z M12.5,41 L5,25 L20,25 L12.5,41 Z"/>
    <path fill="#FFFFFF" d="M12.5,6 C11.12,6 10,7.12 10,8.5 L10,13.5 C10,14.88 11.12,16 12.5,16 C13.88,16 15,14.88 15,13.5 L15,8.5 C15,7.12 13.88,6 12.5,6 Z M12.5,17 C11.12,17 10,18.12 10,19.5 C10,20.88 11.12,22 12.5,22 C13.88,22 15,20.88 15,19.5 C15,18.12 13.88,17 12.5,17 Z"/>
  </g>
</svg>